<?xml version="1.0" encoding="UTF-8"?>
<svg version="1.1" xmlns="http://www.w3.org/2000/svg" width="280" height="327">
<path d="M0 0 C1.10330343 -0.00779995 2.20660686 -0.01559991 3.34334373 -0.02363622 C7.04775561 -0.04361174 10.75114654 -0.0277687 14.45556641 -0.01205444 C17.10828665 -0.01882809 19.76093607 -0.0275485 22.41363525 -0.03860474 C28.87509345 -0.06084358 35.33626133 -0.05603325 41.79773092 -0.04154153 C47.04883298 -0.03025176 52.29985365 -0.02871723 57.55096436 -0.03416061 C58.29819083 -0.03492678 59.0454173 -0.03569294 59.81528699 -0.03648233 C61.33324069 -0.03808095 62.85119437 -0.03970201 64.36914802 -0.04134528 C78.60464023 -0.05560467 92.83997149 -0.03920715 107.07543731 -0.01234345 C119.29142033 0.00999555 131.5071658 0.00611548 143.72314453 -0.01693726 C157.90751622 -0.04369198 172.09174682 -0.05423135 186.27614021 -0.03887594 C187.78852461 -0.03728318 189.30090902 -0.03571133 190.81329346 -0.03416061 C191.92949037 -0.03300355 191.92949037 -0.03300355 193.06823671 -0.03182311 C198.3133275 -0.02750511 203.55832883 -0.03479478 208.80340576 -0.04655838 C215.1950618 -0.06057834 221.5864108 -0.05679442 227.97803164 -0.03015466 C231.23956665 -0.01700909 234.50048357 -0.01456484 237.76203156 -0.02840042 C241.29662166 -0.04201438 244.82976079 -0.02498761 248.36425781 0 C249.39683905 -0.01115361 250.42942028 -0.02230722 251.49329185 -0.03379881 C256.13750376 0.03011863 258.46070495 0.11894979 262.31856346 2.87812233 C264.24806196 5.73245382 264.80906946 6.99273922 264.81704712 10.37857056 C264.83114624 11.30377502 264.84524536 12.22897949 264.85977173 13.18222046 C264.84459 14.68634491 264.84459 14.68634491 264.82910156 16.22085571 C264.84224396 17.81924286 264.84224396 17.81924286 264.85565186 19.44992065 C264.87764851 22.97033471 264.86309091 26.48949151 264.84619141 30.00991821 C264.84955943 32.45702353 264.85441193 34.90412722 264.86068726 37.35122681 C264.868059 42.47915579 264.85734257 47.60664923 264.83398438 52.73452759 C264.80549735 59.30892607 264.82189957 65.88230401 264.85184669 72.45666504 C264.86991094 77.50958959 264.86416544 82.56227203 264.85120773 87.61520386 C264.84787135 90.03931804 264.85196887 92.46345418 264.8636055 94.88754272 C264.87629893 98.27528134 264.8569555 101.6613654 264.82910156 105.04898071 C264.83922272 106.05173035 264.84934387 107.05447998 264.85977173 108.08761597 C264.78805165 112.79399022 264.73605299 114.92420678 261.76669312 118.73403931 C258.26637926 121.30842796 256.6417291 121.75918857 252.36523438 121.7484436 C251.36434784 121.74836807 250.3634613 121.74829254 249.33224487 121.74821472 C248.24887848 121.74305344 247.16551208 121.73789215 246.04931641 121.73257446 C244.94234406 121.73115952 243.8353717 121.72974457 242.69485474 121.72828674 C239.14891898 121.72267594 235.60304568 121.71012158 232.05712891 121.69741821 C229.65739023 121.69240461 227.25765057 121.68784146 224.85791016 121.68374634 C218.96596165 121.67270299 213.07404974 121.65595431 207.18212891 121.63491821 C207.19945068 122.41286743 207.21677246 123.19081665 207.23461914 123.99234009 C207.17658893 126.91382369 206.5307363 128.53524205 205.24462891 131.13491821 C203.02418134 135.69793793 203.02418134 135.69793793 202.18212891 140.63491821 C202.92462891 142.30554321 202.92462891 142.30554321 203.68212891 144.00991821 C205.39927352 148.15968436 205.30032457 150.33416564 204.18212891 154.63491821 C203.52212891 154.96491821 202.86212891 155.29491821 202.18212891 155.63491821 C201.49478542 161.98902688 202.52453283 167.20944178 204.61962891 173.19741821 C207.51839528 181.58050104 208.33087267 189.78466446 208.18212891 198.63491821 C207.85212891 198.96491821 207.52212891 199.29491821 207.18212891 199.63491821 C207.02319327 201.44481907 206.93071714 203.26062147 206.86572266 205.07632446 C206.82366699 206.2103772 206.78161133 207.34442993 206.73828125 208.5128479 C206.67954834 210.33671021 206.67954834 210.33671021 206.61962891 212.19741821 C206.57789551 213.42492798 206.53616211 214.65243774 206.49316406 215.91714478 C204.87729204 234.17355281 204.87729204 234.17355281 208.11279297 251.70547485 C209.68139533 256.00265745 210.23198974 260.38396413 210.90869141 264.89663696 C211.13750504 266.37714287 211.13750504 266.37714287 211.37094116 267.88755798 C211.69131695 269.9673879 212.00885314 272.04765696 212.32373047 274.12832642 C212.80709742 277.32221018 213.29851295 280.51477278 213.79150391 283.70718384 C214.10186545 285.72859676 214.41177695 287.75007885 214.72119141 289.77163696 C214.86803375 290.72994919 215.0148761 291.68826141 215.16616821 292.6756134 C215.36670303 294.00257988 215.36670303 294.00257988 215.57128906 295.35635376 C215.74877182 296.52620064 215.74877182 296.52620064 215.92984009 297.71968079 C216.18212891 299.63491821 216.18212891 299.63491821 216.18212891 301.63491821 C213.21212891 301.63491821 210.24212891 301.63491821 207.18212891 301.63491821 C207.18212891 304.93491821 207.18212891 308.23491821 207.18212891 311.63491821 C207.84212891 311.63491821 208.50212891 311.63491821 209.18212891 311.63491821 C210.39592394 316.33837396 210.25415418 320.80922508 210.18212891 325.63491821 C215.79212891 325.30491821 221.40212891 324.97491821 227.18212891 324.63491821 C226.37775391 321.54116821 226.37775391 321.54116821 225.55712891 318.38491821 C223.95712891 312.23107206 223.95712891 312.23107206 225.09619141 309.21304321 C225.45455078 308.69226196 225.81291016 308.17148071 226.18212891 307.63491821 C227.23400391 308.23304321 228.28587891 308.83116821 229.36962891 309.44741821 C230.00900391 309.80835571 230.64837891 310.16929321 231.30712891 310.54116821 C232.86466636 311.44973173 234.37467355 312.43919251 235.86962891 313.44741821 C238.61193801 314.85563099 239.34760404 314.51212907 242.18212891 313.63491821 C243.02656459 314.877445 243.8572747 316.12930681 244.68212891 317.38491821 C245.14619141 318.08101196 245.61025391 318.77710571 246.08837891 319.49429321 C247.18212891 321.63491821 247.18212891 321.63491821 247.18212891 325.63491821 C252.79212891 325.63491821 258.40212891 325.63491821 264.18212891 325.63491821 C264.18212891 326.29491821 264.18212891 326.95491821 264.18212891 327.63491821 C210.06212891 327.63491821 155.94212891 327.63491821 100.18212891 327.63491821 C100.18212891 326.97491821 100.18212891 326.31491821 100.18212891 325.63491821 C113.38212891 325.63491821 126.58212891 325.63491821 140.18212891 325.63491821 C140.51212891 323.98491821 140.84212891 322.33491821 141.18212891 320.63491821 C142.74072266 319.05288696 142.74072266 319.05288696 144.61962891 317.82241821 C145.23708984 317.4034729 145.85455078 316.98452759 146.49072266 316.55288696 C148.18212891 315.63491821 148.18212891 315.63491821 150.18212891 315.63491821 C150.18212891 312.00491821 150.18212891 308.37491821 150.18212891 304.63491821 C146.88212891 304.96491821 143.58212891 305.29491821 140.18212891 305.63491821 C139.92818359 304.52632446 139.67423828 303.41773071 139.41259766 302.27554321 C139.06544712 300.81188151 138.71776276 299.34834634 138.36962891 297.88491821 C138.12116211 296.79050415 138.12116211 296.79050415 137.86767578 295.67398071 C137.61147461 294.61050415 137.61147461 294.61050415 137.35009766 293.52554321 C137.19822998 292.87617798 137.0463623 292.22681274 136.88989258 291.55776978 C136.25453182 289.51821337 136.25453182 289.51821337 134.65039062 287.72232056 C132.83688355 285.14408885 132.70999736 283.47412692 132.52197266 280.34585571 C132.45042969 279.32105103 132.37888672 278.29624634 132.30517578 277.24038696 C132.24394531 276.17433228 132.18271484 275.10827759 132.11962891 274.00991821 C131.69802305 267.25587583 131.19939532 260.75592181 129.58666992 254.16860962 C128.35291903 246.44147219 129.68555783 241.2923313 132.76806641 234.25601196 C133.14070618 233.37461044 133.51334595 232.49320892 133.89727783 231.58509827 C135.10352614 228.74147053 136.32983286 225.90701716 137.55712891 223.07241821 C138.39210645 221.11669388 139.22592505 219.16047434 140.05859375 217.20376587 C142.06781904 212.49150122 144.09308744 207.78636792 146.12524414 203.08395386 C147.53294379 199.82200257 148.92790189 196.55472653 150.32275391 193.28726196 C153.974164 184.76867959 157.7339838 176.29933734 161.61962891 167.88491821 C161.93818848 167.18608521 162.25674805 166.4872522 162.58496094 165.76724243 C164.84565824 160.95213999 164.84565824 160.95213999 166.88916016 159.02554321 C168.8853079 156.87862902 168.50888991 154.99042741 168.43212891 152.13491821 C168.40892578 150.69632446 168.40892578 150.69632446 168.38525391 149.22866821 C168.27810137 146.52084427 168.27810137 146.52084427 167.18212891 143.63491821 C167.51212891 142.97491821 167.84212891 142.31491821 168.18212891 141.63491821 C168.19555002 139.23092339 168.19555002 139.23092339 167.93212891 136.50991821 C167.86509766 135.59984009 167.79806641 134.68976196 167.72900391 133.75210571 C167.03238735 129.78139136 165.67898022 126.3770465 164.18212891 122.63491821 C163.62750977 122.85220581 163.07289063 123.06949341 162.50146484 123.29336548 C159.98262996 124.27282459 157.45761327 125.23524166 154.93212891 126.19741821 C154.05943359 126.53966431 153.18673828 126.8819104 152.28759766 127.23452759 C151.02109375 127.71309204 151.02109375 127.71309204 149.72900391 128.20132446 C148.95395508 128.499823 148.17890625 128.79832153 147.38037109 129.10586548 C144.82430178 129.72103676 143.63938865 129.51636728 141.18212891 128.63491821 C140.39467789 127.63925339 139.60722687 126.64358856 138.7959137 125.61775208 C135.7543743 122.45539241 133.35371853 122.13248038 129.02745056 121.89561462 C126.47228556 121.86964144 123.91665809 121.87672498 121.36157227 121.90957642 C119.95009024 121.906315 118.53861224 121.90037544 117.12715149 121.89196777 C114.09526105 121.87958523 111.06420287 121.88596522 108.03236198 121.90703773 C103.23740579 121.94015838 98.44309893 121.93078744 93.64808655 121.91572571 C86.06448428 121.89686042 78.48121707 121.90585988 70.89763027 121.92704695 C57.31484439 121.96475628 43.73210502 121.96890625 30.14929491 121.94219464 C25.38368404 121.93410677 20.61847804 121.94269668 15.85291469 121.96475756 C12.88849009 121.97584729 9.92415376 121.97485652 6.95971489 121.97088242 C4.93178075 121.97204294 2.90387281 121.98829239 0.87600708 122.00498962 C-0.33383347 122.00112244 -1.54367401 121.99725525 -2.79017639 121.99327087 C-3.83968003 121.99645482 -4.88918367 121.99963877 -5.97049046 122.0029192 C-10.22245268 121.45338737 -12.82893055 119.62385876 -15.81787109 116.63491821 C-16.07793331 114.66926098 -16.07793331 114.66926098 -16.09202576 112.21406555 C-16.10200089 111.28457092 -16.11197601 110.35507629 -16.12225342 109.39741516 C-16.12291809 108.37452896 -16.12358276 107.35164276 -16.12426758 106.29776001 C-16.13259109 105.22285309 -16.14091461 104.14794617 -16.14949036 103.04046631 C-16.17367105 99.47165347 -16.18237273 95.90302314 -16.18896484 92.33413696 C-16.1979256 89.86032555 -16.20704733 87.38651472 -16.21632385 84.91270447 C-16.23283876 79.71991659 -16.24051842 74.52719338 -16.2434082 69.3343811 C-16.247441 62.67589409 -16.28646201 56.01810162 -16.33215237 49.35975933 C-16.36187686 44.24769364 -16.36913078 39.13577476 -16.37013435 34.02363014 C-16.37434641 31.56878699 -16.38681987 29.11394378 -16.4076519 26.65918541 C-16.43446697 23.22575538 -16.42976892 19.79374081 -16.41723633 16.36026001 C-16.43207062 15.3434465 -16.44690491 14.326633 -16.46218872 13.27900696 C-16.45242508 12.34105286 -16.44266144 11.40309875 -16.43260193 10.4367218 C-16.43461326 9.62537623 -16.43662458 8.81403067 -16.43869686 7.97809887 C-14.19857554 -0.47678369 -7.24570759 -0.07826579 0 0 Z M179.18212891 212.63491821 C177.31203784 214.71448377 175.48829284 216.81326107 173.68212891 218.94741821 C173.14040039 219.58389282 172.59867188 220.22036743 172.04052734 220.87612915 C167.34887948 226.40369304 162.72992 231.98833196 158.18212891 237.63491821 C157.47612549 238.31344849 156.77012207 238.99197876 156.04272461 239.69107056 C152.5917124 243.28494153 150.21970108 245.80766724 150.11425781 250.93569946 C150.79245278 254.65313623 151.74679374 258.15230813 152.86962891 261.75991821 C153.19769531 262.98323853 153.52576172 264.20655884 153.86376953 265.46694946 C155.76678248 272.2242891 158.03273317 277.96541963 162.18212891 283.63491821 C166.40438098 290.04648618 167.58812178 297.23417084 169.18212891 304.63491821 C165.88212891 304.63491821 162.58212891 304.63491821 159.18212891 304.63491821 C159.18212891 306.94491821 159.18212891 309.25491821 159.18212891 311.63491821 C159.84212891 311.63491821 160.50212891 311.63491821 161.18212891 311.63491821 C161.17052734 312.39417603 161.15892578 313.15343384 161.14697266 313.93569946 C161.13794922 314.92956665 161.12892578 315.92343384 161.11962891 316.94741821 C161.10802734 317.93355103 161.09642578 318.91968384 161.08447266 319.93569946 C161.05883029 322.7345567 161.05883029 322.7345567 162.18212891 325.63491821 C166.45260723 325.7797784 170.72245723 325.86884438 174.99462891 325.94741821 C176.20957031 325.98931274 177.42451172 326.03120728 178.67626953 326.07437134 C179.83964844 326.09048462 181.00302734 326.1065979 182.20166016 326.12319946 C183.27520752 326.14938354 184.34875488 326.17556763 185.45483398 326.20254517 C188.40240393 325.91070161 188.40240393 325.91070161 189.92822266 323.19058228 C190.54890625 321.92552856 190.54890625 321.92552856 191.18212891 320.63491821 C193.22509766 319.25601196 193.22509766 319.25601196 195.36962891 318.07241821 C198.31039217 316.02573316 199.07782545 315.20197643 199.73681641 311.61929321 C199.74406179 308.56174068 199.63818998 305.65808596 199.18212891 302.63491821 C197.99360035 301.21716983 197.99360035 301.21716983 194.58447266 301.53726196 C193.09616023 301.54393601 191.60786459 301.55589638 190.11962891 301.57241821 C189.36101562 301.57692993 188.60240234 301.58144165 187.82080078 301.58609009 C185.94121019 301.59791141 184.06165992 301.61584744 182.18212891 301.63491821 C182.32262721 298.84288811 182.46928274 296.05142026 182.61962891 293.25991821 C182.65894531 292.46585571 182.69826172 291.67179321 182.73876953 290.85366821 C183.06884766 284.86148071 183.06884766 284.86148071 184.18212891 282.63491821 C183.20002519 280.62606971 182.19772291 278.62704492 181.18212891 276.63491821 C180.16403011 272.7175422 180.05324022 269.00846022 180.04931641 264.97085571 C180.04738281 263.03919556 180.04738281 263.03919556 180.04541016 261.06851196 C180.04855225 260.0666687 180.04855225 260.0666687 180.05175781 259.04458618 C180.05705757 257.03694232 180.0513092 255.02927915 180.04541016 253.02163696 C180.05211374 246.28453081 180.22591659 239.65204985 180.95556641 232.95230103 C181.62614657 226.09330654 181.04751038 219.44979729 180.18212891 212.63491821 C179.85212891 212.63491821 179.52212891 212.63491821 179.18212891 212.63491821 Z M204.18212891 323.63491821 C205.18212891 325.63491821 205.18212891 325.63491821 205.18212891 325.63491821 Z " fill="#FEFEFE" transform="translate(15.81787109375,-0.634918212890625)"/>
<path d="M0 0 C6.79728616 5.57854908 10.02012981 11.22339329 11.48828125 19.875 C11.8815194 23.88111364 11.57402252 27.49317673 10.73828125 31.421875 C10.59777344 32.08960938 10.45726562 32.75734375 10.3125 33.4453125 C8.22217455 40.64058243 2.61028551 46.15102973 -3.74609375 49.87890625 C-7.10891434 51.43393603 -9.52823488 52.421875 -13.26171875 52.421875 C-13.07609375 53.35 -12.89046875 54.278125 -12.69921875 55.234375 C-12.26171875 58.421875 -12.26171875 58.421875 -13.26171875 61.421875 C-10.36692893 63.44149581 -7.78729353 65.23500397 -4.44921875 66.421875 C-3.36640625 66.916875 -3.36640625 66.916875 -2.26171875 67.421875 C-2.07609375 68.35 -2.07609375 68.35 -1.88671875 69.296875 C-0.99635949 72.32409648 1.05795048 73.20740778 3.65625 74.78515625 C7.36073334 75.91804703 10.31396891 75.16028375 13.71850586 73.39526367 C15.88633779 72.09959137 18.00291441 70.74656912 20.11328125 69.359375 C21.21736328 68.65071289 21.21736328 68.65071289 22.34375 67.92773438 C24.1477029 66.76805037 25.94380515 65.59616993 27.73828125 64.421875 C26.95417391 60.92298094 25.66556157 58.46104782 23.73828125 55.421875 C21.83557547 52.42145434 20.38841438 49.93259393 19.73828125 46.421875 C17.75828125 45.926875 17.75828125 45.926875 15.73828125 45.421875 C15.07828125 42.781875 14.41828125 40.141875 13.73828125 37.421875 C16.04828125 36.101875 18.35828125 34.781875 20.73828125 33.421875 C22.73828125 34.796875 22.73828125 34.796875 24.73828125 36.421875 C24.73828125 37.081875 24.73828125 37.741875 24.73828125 38.421875 C25.37765625 38.525 26.01703125 38.628125 26.67578125 38.734375 C27.35640625 38.96125 28.03703125 39.188125 28.73828125 39.421875 C29.06828125 40.411875 29.39828125 41.401875 29.73828125 42.421875 C31.37610346 43.83572153 33.07189814 45.18345733 34.80078125 46.484375 C36.48230652 47.75082531 38.13813072 49.05405122 39.73828125 50.421875 C39.73828125 51.081875 39.73828125 51.741875 39.73828125 52.421875 C40.39828125 52.421875 41.05828125 52.421875 41.73828125 52.421875 C44.61794207 45.55499151 46.94878406 38.84314863 47.73828125 31.421875 C46.0721622 31.379154 44.4044524 31.38123668 42.73828125 31.421875 C42.40828125 31.751875 42.07828125 32.081875 41.73828125 32.421875 C39.23828125 32.546875 39.23828125 32.546875 36.73828125 32.421875 C35.73828125 31.421875 35.73828125 31.421875 35.42578125 28.734375 C35.90157543 23.69095665 38.18332648 20.83962788 41.86328125 17.484375 C45.57826866 16.11144487 48.30998382 16.55764421 52.18359375 17.109375 C54.51863385 17.39500682 56.58693251 17.37998426 58.92578125 17.234375 C63.53519865 17.46106766 66.29073919 18.35836294 69.73828125 21.421875 C74.83546191 27.54149898 74.32212697 34.8672652 73.73828125 42.421875 C72.95537114 50.27007146 72.95537114 50.27007146 71.73828125 53.421875 C69.71875 54.60546875 69.71875 54.60546875 67.73828125 55.421875 C66.65259622 57.26455368 66.65259622 57.26455368 66.73828125 59.421875 C68.08157713 61.51850691 68.08157713 61.51850691 69.73828125 63.421875 C71.37718083 68.33857373 71.00659708 73.39794663 71.05078125 78.546875 C71.09428711 80.20203125 71.09428711 80.20203125 71.13867188 81.890625 C71.1941541 89.07770752 70.13838864 94.11508408 66.73828125 100.421875 C65.3930897 104.18841135 65.57036305 105.04405904 67.23828125 108.796875 C68.95542586 112.94664114 68.85647692 115.12112243 67.73828125 119.421875 C66.74828125 119.916875 66.74828125 119.916875 65.73828125 120.421875 C65.05093776 126.77598367 66.08068518 131.99639856 68.17578125 137.984375 C71.07454763 146.36745782 71.88702501 154.57162125 71.73828125 163.421875 C71.40828125 163.751875 71.07828125 164.081875 70.73828125 164.421875 C70.57934561 166.23177586 70.48686948 168.04757825 70.421875 169.86328125 C70.37981934 170.99733398 70.33776367 172.13138672 70.29443359 173.29980469 C70.23570068 175.12366699 70.23570068 175.12366699 70.17578125 176.984375 C70.11318115 178.82563965 70.11318115 178.82563965 70.04931641 180.70410156 C68.43344439 198.9605096 68.43344439 198.9605096 71.66894531 216.49243164 C73.23754768 220.78961424 73.78814208 225.17092091 74.46484375 229.68359375 C74.61738617 230.67059769 74.76992859 231.65760162 74.92709351 232.67451477 C75.24746929 234.75434469 75.56500548 236.83461375 75.87988281 238.9152832 C76.36324977 242.10916697 76.85466529 245.30172956 77.34765625 248.49414062 C77.65801779 250.51555355 77.96792929 252.53703564 78.27734375 254.55859375 C78.4241861 255.51690598 78.57102844 256.4752182 78.72232056 257.46257019 C78.92285538 258.78953667 78.92285538 258.78953667 79.12744141 260.14331055 C79.30492416 261.31315742 79.30492416 261.31315742 79.48599243 262.50663757 C79.73828125 264.421875 79.73828125 264.421875 79.73828125 266.421875 C76.76828125 266.421875 73.79828125 266.421875 70.73828125 266.421875 C70.73828125 269.721875 70.73828125 273.021875 70.73828125 276.421875 C71.39828125 276.421875 72.05828125 276.421875 72.73828125 276.421875 C73.95207628 281.12533075 73.81030652 285.59618187 73.73828125 290.421875 C79.34828125 290.091875 84.95828125 289.761875 90.73828125 289.421875 C89.93390625 286.328125 89.93390625 286.328125 89.11328125 283.171875 C87.51328125 277.01802885 87.51328125 277.01802885 88.65234375 274 C89.01070312 273.47921875 89.3690625 272.9584375 89.73828125 272.421875 C90.79015625 273.02 91.84203125 273.618125 92.92578125 274.234375 C93.56515625 274.5953125 94.20453125 274.95625 94.86328125 275.328125 C96.42081871 276.23668852 97.93082589 277.22614929 99.42578125 278.234375 C102.16809035 279.64258778 102.90375638 279.29908585 105.73828125 278.421875 C106.58271693 279.66440179 107.41342705 280.9162636 108.23828125 282.171875 C108.70234375 282.86796875 109.16640625 283.5640625 109.64453125 284.28125 C110.73828125 286.421875 110.73828125 286.421875 110.73828125 290.421875 C116.34828125 290.421875 121.95828125 290.421875 127.73828125 290.421875 C127.73828125 291.081875 127.73828125 291.741875 127.73828125 292.421875 C73.61828125 292.421875 19.49828125 292.421875 -36.26171875 292.421875 C-36.26171875 291.761875 -36.26171875 291.101875 -36.26171875 290.421875 C-23.06171875 290.421875 -9.86171875 290.421875 3.73828125 290.421875 C4.06828125 288.771875 4.39828125 287.121875 4.73828125 285.421875 C6.296875 283.83984375 6.296875 283.83984375 8.17578125 282.609375 C8.79324219 282.19042969 9.41070312 281.77148438 10.046875 281.33984375 C11.73828125 280.421875 11.73828125 280.421875 13.73828125 280.421875 C13.73828125 276.791875 13.73828125 273.161875 13.73828125 269.421875 C10.43828125 269.751875 7.13828125 270.081875 3.73828125 270.421875 C3.35736328 268.75898437 3.35736328 268.75898437 2.96875 267.0625 C2.62159947 265.5988383 2.2739151 264.13530313 1.92578125 262.671875 C1.76013672 261.94226563 1.59449219 261.21265625 1.42382812 260.4609375 C1.25302734 259.75195312 1.08222656 259.04296875 0.90625 258.3125 C0.75438232 257.66313477 0.60251465 257.01376953 0.44604492 256.34472656 C-0.18931583 254.30517016 -0.18931583 254.30517016 -1.79345703 252.50927734 C-3.60696411 249.93104563 -3.7338503 248.26108371 -3.921875 245.1328125 C-3.99341797 244.10800781 -4.06496094 243.08320313 -4.13867188 242.02734375 C-4.19990234 240.96128906 -4.26113281 239.89523437 -4.32421875 238.796875 C-4.74582461 232.04283261 -5.24445234 225.5428786 -6.85717773 218.95556641 C-8.09092862 211.22842898 -6.75828983 206.07928809 -3.67578125 199.04296875 C-3.30314148 198.16156723 -2.93050171 197.28016571 -2.54656982 196.37205505 C-1.34032151 193.52842732 -0.11401479 190.69397395 1.11328125 187.859375 C1.9482588 185.90365066 2.78207739 183.94743112 3.61474609 181.99072266 C5.62397138 177.27845801 7.64923978 172.57332471 9.68139648 167.87091064 C11.08909613 164.60895936 12.48405423 161.34168332 13.87890625 158.07421875 C17.53031634 149.55563638 21.29013614 141.08629412 25.17578125 132.671875 C25.49434082 131.97304199 25.81290039 131.27420898 26.14111328 130.55419922 C28.40181058 125.73909677 28.40181058 125.73909677 30.4453125 123.8125 C32.44146024 121.66558581 32.06504225 119.7773842 31.98828125 116.921875 C31.96507812 115.48328125 31.96507812 115.48328125 31.94140625 114.015625 C31.83425371 111.30780106 31.83425371 111.30780106 30.73828125 108.421875 C31.06828125 107.761875 31.39828125 107.101875 31.73828125 106.421875 C31.75170236 104.01788017 31.75170236 104.01788017 31.48828125 101.296875 C31.38773438 99.93175781 31.38773438 99.93175781 31.28515625 98.5390625 C30.5885397 94.56834815 29.23513257 91.16400329 27.73828125 87.421875 C27.18366211 87.6391626 26.62904297 87.8564502 26.05761719 88.08032227 C23.5387823 89.05978138 21.01376561 90.02219845 18.48828125 90.984375 C17.61558594 91.32662109 16.74289063 91.66886719 15.84375 92.02148438 C14.57724609 92.50004883 14.57724609 92.50004883 13.28515625 92.98828125 C12.51010742 93.28677979 11.73505859 93.58527832 10.93652344 93.89282227 C8.42348765 94.49763663 7.13512058 94.34405145 4.73828125 93.421875 C2.484375 91.42578125 2.484375 91.42578125 0.17578125 88.984375 C-4.34157203 83.94532922 -4.34157203 83.94532922 -10.63671875 82.234375 C-14.61879768 81.34184007 -14.92702033 81.03238631 -17.07421875 77.859375 C-17.45191406 77.21871094 -17.82960937 76.57804687 -18.21875 75.91796875 C-18.73501953 75.17740234 -18.73501953 75.17740234 -19.26171875 74.421875 C-19.92171875 74.421875 -20.58171875 74.421875 -21.26171875 74.421875 C-22.87020019 70.35336312 -23.80525857 67.61148308 -22.26171875 63.421875 C-19.96786547 60.66925107 -18.68819586 59.56403404 -15.26171875 58.421875 C-15.38151494 55.79594259 -15.75940854 53.98699814 -17.53076172 51.99414062 C-19.21128645 50.49237332 -20.93383843 49.07285062 -22.69921875 47.671875 C-23.29798828 47.17816406 -23.89675781 46.68445313 -24.51367188 46.17578125 C-27.7143829 43.54031549 -27.7143829 43.54031549 -31.26171875 41.421875 C-31.26171875 40.761875 -31.26171875 40.101875 -31.26171875 39.421875 C-32.25171875 39.421875 -33.24171875 39.421875 -34.26171875 39.421875 C-35.57673238 41.58777981 -36.29194827 42.92308792 -36.13671875 45.484375 C-35.01163194 47.97563866 -33.52897828 48.95912691 -31.26171875 50.421875 C-31.59171875 51.411875 -31.92171875 52.401875 -32.26171875 53.421875 C-36.45875559 50.28272142 -39.71805621 47.62646073 -41.5078125 42.52734375 C-42.2756089 40.28184079 -42.2756089 40.28184079 -43.546875 37.66015625 C-47.53761072 28.97836071 -48.8992599 22.36123062 -45.63671875 13.234375 C-41.69453903 4.48766375 -35.82296038 -0.36814149 -27.26171875 -4.578125 C-17.79395435 -7.6532847 -8.0190965 -5.59536267 0 0 Z M42.73828125 177.421875 C40.86819018 179.50144056 39.04444519 181.60021786 37.23828125 183.734375 C36.69655273 184.37084961 36.15482422 185.00732422 35.59667969 185.66308594 C30.90503182 191.19064983 26.28607234 196.77528875 21.73828125 202.421875 C21.03227783 203.10040527 20.32627441 203.77893555 19.59887695 204.47802734 C16.14786474 208.07189831 13.77585342 210.59462403 13.67041016 215.72265625 C14.34860513 219.44009302 15.30294609 222.93926492 16.42578125 226.546875 C16.75384766 227.77019531 17.08191406 228.99351562 17.41992188 230.25390625 C19.32293482 237.01124589 21.58888551 242.75237642 25.73828125 248.421875 C29.96053332 254.83344297 31.14427412 262.02112762 32.73828125 269.421875 C29.43828125 269.421875 26.13828125 269.421875 22.73828125 269.421875 C22.73828125 271.731875 22.73828125 274.041875 22.73828125 276.421875 C23.39828125 276.421875 24.05828125 276.421875 24.73828125 276.421875 C24.72667969 277.18113281 24.71507812 277.94039063 24.703125 278.72265625 C24.69410156 279.71652344 24.68507813 280.71039063 24.67578125 281.734375 C24.66417969 282.72050781 24.65257812 283.70664062 24.640625 284.72265625 C24.61498263 287.52151349 24.61498263 287.52151349 25.73828125 290.421875 C30.00875958 290.56673519 34.27860958 290.65580116 38.55078125 290.734375 C39.76572266 290.77626953 40.98066406 290.81816406 42.23242188 290.86132812 C43.39580078 290.87744141 44.55917969 290.89355469 45.7578125 290.91015625 C46.83135986 290.93634033 47.90490723 290.96252441 49.01098633 290.98950195 C51.95855627 290.69765839 51.95855627 290.69765839 53.484375 287.97753906 C54.10505859 286.71248535 54.10505859 286.71248535 54.73828125 285.421875 C56.78125 284.04296875 56.78125 284.04296875 58.92578125 282.859375 C61.86654451 280.81268994 62.6339778 279.98893322 63.29296875 276.40625 C63.30021414 273.34869747 63.19434233 270.44504275 62.73828125 267.421875 C61.5497527 266.00412662 61.5497527 266.00412662 58.140625 266.32421875 C56.65231258 266.3308928 55.16401693 266.34285317 53.67578125 266.359375 C52.91716797 266.36388672 52.15855469 266.36839844 51.37695312 266.37304688 C49.49736254 266.3848682 47.61781226 266.40280422 45.73828125 266.421875 C45.87877955 263.6298449 46.02543508 260.83837704 46.17578125 258.046875 C46.21509766 257.2528125 46.25441406 256.45875 46.29492188 255.640625 C46.625 249.6484375 46.625 249.6484375 47.73828125 247.421875 C46.75617754 245.4130265 45.75387526 243.41400171 44.73828125 241.421875 C43.72018246 237.50449898 43.60939256 233.79541701 43.60546875 229.7578125 C43.60353516 227.82615234 43.60353516 227.82615234 43.6015625 225.85546875 C43.60470459 224.85362549 43.60470459 224.85362549 43.60791016 223.83154297 C43.61320991 221.82389911 43.60746155 219.81623594 43.6015625 217.80859375 C43.60826609 211.0714876 43.78206894 204.43900664 44.51171875 197.73925781 C45.18229891 190.88026333 44.60366272 184.23675408 43.73828125 177.421875 C43.40828125 177.421875 43.07828125 177.421875 42.73828125 177.421875 Z M67.73828125 288.421875 C68.73828125 290.421875 68.73828125 290.421875 68.73828125 290.421875 Z " fill="#2F2E41" transform="translate(152.26171875,34.578125)"/>
<path d="M0 0 C6.79728616 5.57854908 10.02012981 11.22339329 11.48828125 19.875 C11.8815194 23.88111364 11.57402252 27.49317673 10.73828125 31.421875 C10.59777344 32.08960938 10.45726562 32.75734375 10.3125 33.4453125 C8.22217455 40.64058243 2.61028551 46.15102973 -3.74609375 49.87890625 C-7.10891434 51.43393603 -9.52823488 52.421875 -13.26171875 52.421875 C-13.07609375 53.35 -12.89046875 54.278125 -12.69921875 55.234375 C-12.26171875 58.421875 -12.26171875 58.421875 -13.26171875 61.421875 C-10.36692893 63.44149581 -7.78729353 65.23500397 -4.44921875 66.421875 C-3.36640625 66.916875 -3.36640625 66.916875 -2.26171875 67.421875 C-2.07609375 68.35 -2.07609375 68.35 -1.88671875 69.296875 C-0.99635949 72.32409648 1.05795048 73.20740778 3.65625 74.78515625 C7.36073334 75.91804703 10.31396891 75.16028375 13.71850586 73.39526367 C15.88633779 72.09959137 18.00291441 70.74656912 20.11328125 69.359375 C21.21736328 68.65071289 21.21736328 68.65071289 22.34375 67.92773438 C24.1477029 66.76805037 25.94380515 65.59616993 27.73828125 64.421875 C26.95417391 60.92298094 25.66556157 58.46104782 23.73828125 55.421875 C21.83557547 52.42145434 20.38841438 49.93259393 19.73828125 46.421875 C17.75828125 45.926875 17.75828125 45.926875 15.73828125 45.421875 C15.07828125 42.781875 14.41828125 40.141875 13.73828125 37.421875 C16.04828125 36.101875 18.35828125 34.781875 20.73828125 33.421875 C22.73828125 34.796875 22.73828125 34.796875 24.73828125 36.421875 C24.73828125 37.081875 24.73828125 37.741875 24.73828125 38.421875 C25.37765625 38.525 26.01703125 38.628125 26.67578125 38.734375 C27.35640625 38.96125 28.03703125 39.188125 28.73828125 39.421875 C29.06828125 40.411875 29.39828125 41.401875 29.73828125 42.421875 C31.37610346 43.83572153 33.07189814 45.18345733 34.80078125 46.484375 C36.48230652 47.75082531 38.13813072 49.05405122 39.73828125 50.421875 C39.73828125 51.081875 39.73828125 51.741875 39.73828125 52.421875 C40.39828125 52.421875 41.05828125 52.421875 41.73828125 52.421875 C44.61794207 45.55499151 46.94878406 38.84314863 47.73828125 31.421875 C46.0721622 31.379154 44.4044524 31.38123668 42.73828125 31.421875 C42.40828125 31.751875 42.07828125 32.081875 41.73828125 32.421875 C39.23828125 32.546875 39.23828125 32.546875 36.73828125 32.421875 C35.73828125 31.421875 35.73828125 31.421875 35.42578125 28.734375 C35.90157543 23.69095665 38.18332648 20.83962788 41.86328125 17.484375 C45.57826866 16.11144487 48.30998382 16.55764421 52.18359375 17.109375 C54.51863385 17.39500682 56.58693251 17.37998426 58.92578125 17.234375 C63.53519865 17.46106766 66.29073919 18.35836294 69.73828125 21.421875 C74.83546191 27.54149898 74.32212697 34.8672652 73.73828125 42.421875 C72.95537114 50.27007146 72.95537114 50.27007146 71.73828125 53.421875 C69.71875 54.60546875 69.71875 54.60546875 67.73828125 55.421875 C66.65259622 57.26455368 66.65259622 57.26455368 66.73828125 59.421875 C68.08157713 61.51850691 68.08157713 61.51850691 69.73828125 63.421875 C71.37718083 68.33857373 71.00659708 73.39794663 71.05078125 78.546875 C71.09428711 80.20203125 71.09428711 80.20203125 71.13867188 81.890625 C71.1941541 89.07770752 70.13838864 94.11508408 66.73828125 100.421875 C65.3930897 104.18841135 65.57036305 105.04405904 67.23828125 108.796875 C68.95542586 112.94664114 68.85647692 115.12112243 67.73828125 119.421875 C66.74828125 119.916875 66.74828125 119.916875 65.73828125 120.421875 C65.27305062 122.31720842 65.27305062 122.31720842 65.11328125 124.484375 C64.92765625 126.4334375 64.92765625 126.4334375 64.73828125 128.421875 C53.93759899 126.72715436 43.35147245 124.00829536 32.73828125 121.421875 C32.67769531 120.73480469 32.61710937 120.04773438 32.5546875 119.33984375 C32.47089844 118.43878906 32.38710937 117.53773438 32.30078125 116.609375 C32.21957031 115.71605469 32.13835937 114.82273437 32.0546875 113.90234375 C31.80338358 111.29443941 31.80338358 111.29443941 30.73828125 108.421875 C31.06828125 107.761875 31.39828125 107.101875 31.73828125 106.421875 C31.75170236 104.01788017 31.75170236 104.01788017 31.48828125 101.296875 C31.38773438 99.93175781 31.38773438 99.93175781 31.28515625 98.5390625 C30.5885397 94.56834815 29.23513257 91.16400329 27.73828125 87.421875 C27.18366211 87.6391626 26.62904297 87.8564502 26.05761719 88.08032227 C23.5387823 89.05978138 21.01376561 90.02219845 18.48828125 90.984375 C17.61558594 91.32662109 16.74289063 91.66886719 15.84375 92.02148438 C14.57724609 92.50004883 14.57724609 92.50004883 13.28515625 92.98828125 C12.51010742 93.28677979 11.73505859 93.58527832 10.93652344 93.89282227 C8.42348765 94.49763663 7.13512058 94.34405145 4.73828125 93.421875 C2.484375 91.42578125 2.484375 91.42578125 0.17578125 88.984375 C-4.34157203 83.94532922 -4.34157203 83.94532922 -10.63671875 82.234375 C-14.61879768 81.34184007 -14.92702033 81.03238631 -17.07421875 77.859375 C-17.45191406 77.21871094 -17.82960937 76.57804687 -18.21875 75.91796875 C-18.73501953 75.17740234 -18.73501953 75.17740234 -19.26171875 74.421875 C-19.92171875 74.421875 -20.58171875 74.421875 -21.26171875 74.421875 C-22.87020019 70.35336312 -23.80525857 67.61148308 -22.26171875 63.421875 C-19.96786547 60.66925107 -18.68819586 59.56403404 -15.26171875 58.421875 C-15.38151494 55.79594259 -15.75940854 53.98699814 -17.53076172 51.99414062 C-19.21128645 50.49237332 -20.93383843 49.07285062 -22.69921875 47.671875 C-23.29798828 47.17816406 -23.89675781 46.68445313 -24.51367188 46.17578125 C-27.7143829 43.54031549 -27.7143829 43.54031549 -31.26171875 41.421875 C-31.26171875 40.761875 -31.26171875 40.101875 -31.26171875 39.421875 C-32.25171875 39.421875 -33.24171875 39.421875 -34.26171875 39.421875 C-35.57673238 41.58777981 -36.29194827 42.92308792 -36.13671875 45.484375 C-35.01163194 47.97563866 -33.52897828 48.95912691 -31.26171875 50.421875 C-31.59171875 51.411875 -31.92171875 52.401875 -32.26171875 53.421875 C-36.45875559 50.28272142 -39.71805621 47.62646073 -41.5078125 42.52734375 C-42.2756089 40.28184079 -42.2756089 40.28184079 -43.546875 37.66015625 C-47.53761072 28.97836071 -48.8992599 22.36123062 -45.63671875 13.234375 C-41.69453903 4.48766375 -35.82296038 -0.36814149 -27.26171875 -4.578125 C-17.79395435 -7.6532847 -8.0190965 -5.59536267 0 0 Z " fill="#403E57" transform="translate(152.26171875,34.578125)"/>
<path d="M0 0 C1.10330343 -0.00779995 2.20660686 -0.01559991 3.34334373 -0.02363622 C7.04775561 -0.04361174 10.75114654 -0.0277687 14.45556641 -0.01205444 C17.10828665 -0.01882809 19.76093607 -0.0275485 22.41363525 -0.03860474 C28.87509345 -0.06084358 35.33626133 -0.05603325 41.79773092 -0.04154153 C47.04883298 -0.03025176 52.29985365 -0.02871723 57.55096436 -0.03416061 C58.29819083 -0.03492678 59.0454173 -0.03569294 59.81528699 -0.03648233 C61.33324069 -0.03808095 62.85119437 -0.03970201 64.36914802 -0.04134528 C78.60464023 -0.05560467 92.83997149 -0.03920715 107.07543731 -0.01234345 C119.29142033 0.00999555 131.5071658 0.00611548 143.72314453 -0.01693726 C157.90751622 -0.04369198 172.09174682 -0.05423135 186.27614021 -0.03887594 C187.78852461 -0.03728318 189.30090902 -0.03571133 190.81329346 -0.03416061 C191.92949037 -0.03300355 191.92949037 -0.03300355 193.06823671 -0.03182311 C198.3133275 -0.02750511 203.55832883 -0.03479478 208.80340576 -0.04655838 C215.1950618 -0.06057834 221.5864108 -0.05679442 227.97803164 -0.03015466 C231.23956665 -0.01700909 234.50048357 -0.01456484 237.76203156 -0.02840042 C241.29662166 -0.04201438 244.82976079 -0.02498761 248.36425781 0 C249.39683905 -0.01115361 250.42942028 -0.02230722 251.49329185 -0.03379881 C256.13750376 0.03011863 258.46070495 0.11894979 262.31856346 2.87812233 C264.24806196 5.73245382 264.80906946 6.99273922 264.81704712 10.37857056 C264.83114624 11.30377502 264.84524536 12.22897949 264.85977173 13.18222046 C264.84459 14.68634491 264.84459 14.68634491 264.82910156 16.22085571 C264.84224396 17.81924286 264.84224396 17.81924286 264.85565186 19.44992065 C264.87764851 22.97033471 264.86309091 26.48949151 264.84619141 30.00991821 C264.84955943 32.45702353 264.85441193 34.90412722 264.86068726 37.35122681 C264.868059 42.47915579 264.85734257 47.60664923 264.83398438 52.73452759 C264.80549735 59.30892607 264.82189957 65.88230401 264.85184669 72.45666504 C264.86991094 77.50958959 264.86416544 82.56227203 264.85120773 87.61520386 C264.84787135 90.03931804 264.85196887 92.46345418 264.8636055 94.88754272 C264.87629893 98.27528134 264.8569555 101.6613654 264.82910156 105.04898071 C264.83922272 106.05173035 264.84934387 107.05447998 264.85977173 108.08761597 C264.78805165 112.79399022 264.73605299 114.92420678 261.76669312 118.73403931 C258.26637926 121.30842796 256.6417291 121.75918857 252.36523438 121.7484436 C251.36434784 121.74836807 250.3634613 121.74829254 249.33224487 121.74821472 C248.24887848 121.74305344 247.16551208 121.73789215 246.04931641 121.73257446 C244.94234406 121.73115952 243.8353717 121.72974457 242.69485474 121.72828674 C239.14891898 121.72267594 235.60304568 121.71012158 232.05712891 121.69741821 C229.65739023 121.69240461 227.25765057 121.68784146 224.85791016 121.68374634 C218.9659589 121.67270299 213.0740545 121.65543108 207.18212891 121.63491821 C207.18212891 117.67491821 207.18212891 113.71491821 207.18212891 109.63491821 C207.51212891 110.95491821 207.84212891 112.27491821 208.18212891 113.63491821 C227.87047704 106.56088534 242.11551636 97.47374138 251.78759766 78.48257446 C257.50297945 65.45954909 260.08468424 49.58841343 255.15869141 35.86929321 C249.72913303 23.44646365 242.36373019 15.09853221 229.74072266 9.56460571 C217.55845523 5.43026125 203.54163016 6.48510322 190.81054688 6.48965454 C189.11368741 6.48665469 187.41682862 6.48325029 185.7199707 6.47947693 C181.15402023 6.47072144 176.58808855 6.46830255 172.02213049 6.46766114 C169.16189858 6.46694636 166.30167133 6.46480411 163.44144058 6.46216393 C153.44240265 6.45294186 143.44337798 6.44882551 133.44433594 6.44961548 C124.1545775 6.45021696 114.86487698 6.43964321 105.5751332 6.42387182 C97.56793283 6.41076678 89.56075135 6.40543275 81.55354035 6.40607089 C76.78469491 6.40632479 72.01590116 6.40353247 67.2470665 6.39289284 C62.76373366 6.38316052 58.28050146 6.3831676 53.79716492 6.39040947 C52.16060869 6.39144862 50.52404601 6.38913266 48.88750076 6.38304901 C31.86326324 6.32390343 16.15990625 7.47882509 3.18212891 19.63491821 C-6.90637255 30.0076028 -9.51955418 41.79719919 -9.45263672 55.74819946 C-9.44014893 56.57271606 -9.42766113 57.39723267 -9.41479492 58.24673462 C-9.38031547 60.76397912 -9.39424014 63.27772802 -9.41357422 65.79507446 C-9.40122837 79.80899187 -6.66742722 91.30323964 3.21728516 101.79507446 C17.48190135 115.25463295 33.42689761 114.92604705 51.90869141 114.79507446 C53.90839345 114.78879522 55.908099 114.78355807 57.9078064 114.77931213 C63.13850757 114.76608772 68.36908917 114.74167592 73.59973145 114.71395874 C82.00618174 114.67060673 90.41266749 114.64118273 98.81919479 114.61791801 C101.75585962 114.60767157 104.69243075 114.59063568 107.62905884 114.57292175 C109.41318682 114.56609954 111.19731563 114.55949069 112.98144531 114.5531311 C113.80213501 114.54639374 114.62282471 114.53965637 115.46838379 114.53271484 C117.37326619 114.52882775 119.27814773 114.57620059 121.18212891 114.63491821 C121.51212891 114.96491821 121.84212891 115.29491821 122.18212891 115.63491821 C123.25462891 115.71741821 124.32712891 115.79991821 125.43212891 115.88491821 C129.89983397 116.77845923 131.15829364 118.36083451 134.18212891 121.63491821 C115.62362379 121.7049934 97.06514551 121.75789908 78.50653553 121.79035473 C69.88948456 121.80582487 61.27251579 121.82691719 52.65551758 121.86123657 C45.14510582 121.89113444 37.63475359 121.91049215 30.12428397 121.9171837 C26.14737974 121.92109531 22.17064582 121.93029112 18.19379616 121.95210838 C14.45015861 121.97247972 10.70676144 121.97875075 6.96307373 121.97424126 C4.93508336 121.97545932 2.90711912 121.99159808 0.87919617 122.00817871 C-0.33090118 122.00405472 -1.54099854 121.99993073 -2.7877655 121.99568176 C-3.83768771 121.99844714 -4.88760992 122.00121252 -5.96934795 122.0040617 C-10.22153665 121.45301553 -12.82852379 119.62426551 -15.81787109 116.63491821 C-16.07793331 114.66926098 -16.07793331 114.66926098 -16.09202576 112.21406555 C-16.10200089 111.28457092 -16.11197601 110.35507629 -16.12225342 109.39741516 C-16.12291809 108.37452896 -16.12358276 107.35164276 -16.12426758 106.29776001 C-16.13259109 105.22285309 -16.14091461 104.14794617 -16.14949036 103.04046631 C-16.17367105 99.47165347 -16.18237273 95.90302314 -16.18896484 92.33413696 C-16.1979256 89.86032555 -16.20704733 87.38651472 -16.21632385 84.91270447 C-16.23283876 79.71991659 -16.24051842 74.52719338 -16.2434082 69.3343811 C-16.247441 62.67589409 -16.28646201 56.01810162 -16.33215237 49.35975933 C-16.36187686 44.24769364 -16.36913078 39.13577476 -16.37013435 34.02363014 C-16.37434641 31.56878699 -16.38681987 29.11394378 -16.4076519 26.65918541 C-16.43446697 23.22575538 -16.42976892 19.79374081 -16.41723633 16.36026001 C-16.43207062 15.3434465 -16.44690491 14.326633 -16.46218872 13.27900696 C-16.45242508 12.34105286 -16.44266144 11.40309875 -16.43260193 10.4367218 C-16.43461326 9.62537623 -16.43662458 8.81403067 -16.43869686 7.97809887 C-14.19857554 -0.47678369 -7.24570759 -0.07826579 0 0 Z " fill="#F1F1F1" transform="translate(15.81787109375,-0.634918212890625)"/>
<path d="M0 0 C6.79728616 5.57854908 10.02012981 11.22339329 11.48828125 19.875 C11.8815194 23.88111364 11.57402252 27.49317673 10.73828125 31.421875 C10.59777344 32.08960938 10.45726562 32.75734375 10.3125 33.4453125 C8.2312316 40.60940644 2.65704682 46.07962431 -3.640625 49.84375 C-5.84502149 50.87321435 -7.92730179 51.73743861 -10.26171875 52.421875 C-11.20144531 52.72867188 -12.14117187 53.03546875 -13.109375 53.3515625 C-17.77200286 53.45556163 -19.73645179 51.13390822 -23.01171875 48.046875 C-26.85760322 44.3417462 -26.85760322 44.3417462 -31.26171875 41.421875 C-31.26171875 40.761875 -31.26171875 40.101875 -31.26171875 39.421875 C-32.25171875 39.421875 -33.24171875 39.421875 -34.26171875 39.421875 C-35.57673238 41.58777981 -36.29194827 42.92308792 -36.13671875 45.484375 C-35.01163194 47.97563866 -33.52897828 48.95912691 -31.26171875 50.421875 C-31.59171875 51.411875 -31.92171875 52.401875 -32.26171875 53.421875 C-36.45875559 50.28272142 -39.71805621 47.62646073 -41.5078125 42.52734375 C-42.2756089 40.28184079 -42.2756089 40.28184079 -43.546875 37.66015625 C-47.53761072 28.97836071 -48.8992599 22.36123062 -45.63671875 13.234375 C-41.69453903 4.48766375 -35.82296038 -0.36814149 -27.26171875 -4.578125 C-17.79395435 -7.6532847 -8.0190965 -5.59536267 0 0 Z " fill="#27325D" transform="translate(152.26171875,34.578125)"/>
<path d="M0 0 C0.33 0.66 0.66 1.32 1 2 C9.91 2 18.82 2 28 2 C27.34 3.65 26.68 5.3 26 7 C25.83242243 10.20870233 25.83242243 10.20870233 26 13 C28.475 13.495 28.475 13.495 31 14 C31.33 13.34 31.66 12.68 32 12 C34.475 12.495 34.475 12.495 37 13 C37.67459432 20.58918607 35.20400029 27.69399957 31 34 C30.34 34 29.68 34 29 34 C29 33.34 29 32.68 29 32 C28.41734375 31.73058594 27.8346875 31.46117188 27.234375 31.18359375 C24.98891824 29.99412977 23.19305156 28.69416509 21.25 27.0625 C20.63640625 26.55847656 20.0228125 26.05445312 19.390625 25.53515625 C18 24 18 24 18 21 C17.4225 20.9175 16.845 20.835 16.25 20.75 C13.3840696 19.79468987 12.0009236 18.21530827 10 16 C9.21625 16.495 8.4325 16.99 7.625 17.5 C5 19 5 19 3 19 C3.39651917 20.31872662 3.81798691 21.62997101 4.25 22.9375 C4.48203125 23.66839844 4.7140625 24.39929688 4.953125 25.15234375 C5.83128395 27.20902837 5.83128395 27.20902837 8.01953125 27.5625 C8.67308594 27.706875 9.32664063 27.85125 10 28 C10.76504878 29.62988654 11.51443452 31.27138368 12.13671875 32.9609375 C13.39902173 35.94248571 15.24260921 38.47161241 17.109375 41.10546875 C18 43 18 43 17.79467773 44.94140625 C16.23427375 48.98359563 11.88086393 50.66365751 8.3125 52.8125 C7.50876953 53.32748047 6.70503906 53.84246094 5.87695312 54.37304688 C-0.08541387 58.01481968 -0.08541387 58.01481968 -4.375 57.9453125 C-8.25315204 56.54871608 -12.09932327 54.80135345 -14 51 C-13.67 50.34 -13.34 49.68 -13 49 C-14.5778125 48.6596875 -14.5778125 48.6596875 -16.1875 48.3125 C-20.20212052 47.14327244 -22.50233698 45.43428666 -25 42 C-24.8125 38.8125 -24.8125 38.8125 -24 36 C-24 35.34 -24 34.68 -24 34 C-23.3709375 33.79246094 -22.741875 33.58492187 -22.09375 33.37109375 C-13.27107194 30.19546114 -6.5458306 25.39230265 -2 17 C0.19641264 11.28932713 0.21808862 6.02166917 0 0 Z " fill="#FBFBFC" transform="translate(163,53)"/>
<path d="M0 0 C2.3350401 0.28563182 4.40333876 0.27060926 6.7421875 0.125 C11.3516049 0.35169266 14.10714544 1.24898794 17.5546875 4.3125 C22.65186816 10.43212398 22.13853322 17.7578902 21.5546875 25.3125 C20.77177739 33.16069646 20.77177739 33.16069646 19.5546875 36.3125 C17.5390625 37.42578125 17.5390625 37.42578125 15.5546875 38.3125 C15.2246875 39.3025 14.8946875 40.2925 14.5546875 41.3125 C11.5546875 43.3125 11.5546875 43.3125 9.5546875 43.1875 C7.5546875 42.3125 7.5546875 42.3125 6.2421875 40.25 C5.6853125 39.610625 5.1284375 38.97125 4.5546875 38.3125 C0.92904936 37.97869186 0.92904936 37.97869186 -2.4453125 38.3125 C-2.4453125 35.6725 -2.4453125 33.0325 -2.4453125 30.3125 C-2.84363281 30.87839844 -3.24195313 31.44429687 -3.65234375 32.02734375 C-4.18214844 32.76082031 -4.71195313 33.49429688 -5.2578125 34.25 C-5.77988281 34.98089844 -6.30195313 35.71179688 -6.83984375 36.46484375 C-8.4453125 38.3125 -8.4453125 38.3125 -11.4453125 39.3125 C-11.7753125 38.6525 -12.1053125 37.9925 -12.4453125 37.3125 C-11.57685784 35.46592235 -10.62342317 33.65902718 -9.6328125 31.875 C-6.61089285 26.07656021 -5.18369493 20.77971159 -4.4453125 14.3125 C-6.11143155 14.269779 -7.77914135 14.27186168 -9.4453125 14.3125 C-9.7753125 14.6425 -10.1053125 14.9725 -10.4453125 15.3125 C-12.9453125 15.4375 -12.9453125 15.4375 -15.4453125 15.3125 C-16.4453125 14.3125 -16.4453125 14.3125 -16.7578125 11.625 C-16.28201832 6.58158165 -14.00026727 3.73025288 -10.3203125 0.375 C-6.60532509 -0.99793013 -3.87360993 -0.55173079 0 0 Z " fill="#313043" transform="translate(204.4453125,51.6875)"/>
<path d="M0 0 C3.21725218 3.04709389 4.96694712 6.63435022 6.05419922 10.87353516 C5.77342344 13.5294613 5.40160478 14.56583018 3.38354492 16.35327148 C1.05460275 17.81569192 -1.27738875 19.26732227 -3.63330078 20.68603516 C-4.43703125 21.20101562 -5.24076172 21.71599609 -6.06884766 22.24658203 C-12.03121465 25.88835484 -12.03121465 25.88835484 -16.32080078 25.81884766 C-20.19895282 24.42225124 -24.04512405 22.67488861 -25.94580078 18.87353516 C-25.61580078 18.21353516 -25.28580078 17.55353516 -24.94580078 16.87353516 C-26.52361328 16.53322266 -26.52361328 16.53322266 -28.13330078 16.18603516 C-32.1479213 15.01680759 -34.44813776 13.30782181 -36.94580078 9.87353516 C-36.75830078 6.68603516 -36.75830078 6.68603516 -35.94580078 3.87353516 C-35.94580078 3.21353516 -35.94580078 2.55353516 -35.94580078 1.87353516 C-26.2249576 -1.89827466 -9.61064207 -5.56380207 0 0 Z " fill="#FDFDFD" transform="translate(174.94580078125,85.12646484375)"/>
<path d="M0 0 C1.5778125 0.8971875 1.5778125 0.8971875 3.1875 1.8125 C3.826875 2.1734375 4.46625 2.534375 5.125 2.90625 C6.68253746 3.81481352 8.19254464 4.80427429 9.6875 5.8125 C12.4298091 7.22071278 13.16547513 6.87721085 16 6 C16.84443568 7.24252679 17.6751458 8.4943886 18.5 9.75 C18.9640625 10.44609375 19.428125 11.1421875 19.90625 11.859375 C21 14 21 14 21 18 C26.61 18 32.22 18 38 18 C38 18.66 38 19.32 38 20 C-16.12 20 -70.24 20 -126 20 C-126 19.34 -126 18.68 -126 18 C-63.135 17.505 -63.135 17.505 1 17 C0.01 12.71 -0.98 8.42 -2 4 C-1.34 2.68 -0.68 1.36 0 0 Z " fill="#C5C5C7" transform="translate(242,307)"/>
<path d="M0 0 C0.33 0.66 0.66 1.32 1 2 C9.91 2 18.82 2 28 2 C27.34 3.65 26.68 5.3 26 7 C18.74 7 11.48 7 4 7 C5.65 9.31 7.3 11.62 9 14 C8.67 14.99 8.34 15.98 8 17 C5.4375 18.1875 5.4375 18.1875 3 19 C3.39651917 20.31872662 3.81798691 21.62997101 4.25 22.9375 C4.48203125 23.66839844 4.7140625 24.39929688 4.953125 25.15234375 C5.8507553 27.20570556 5.8507553 27.20570556 8.109375 27.75390625 C9.04523438 27.87572266 9.04523438 27.87572266 10 28 C10 28.99 10 29.98 10 31 C2.08 31 -5.84 31 -14 31 C-9 26 -9 26 -6.4375 23.875 C-0.59244998 16.98083844 0.68688679 8.79596692 0 0 Z " fill="#DFE0E1" transform="translate(163,53)"/>
<path d="M0 0 C2.97 0 5.94 0 9 0 C9 3.3 9 6.6 9 10 C9.66 10 10.32 10 11 10 C12.27138808 14.92662882 12 18.53685423 12 24 C4.74 24 -2.52 24 -10 24 C-9 20 -9 20 -6.93359375 18.53515625 C-5.69802734 17.80619141 -5.69802734 17.80619141 -4.4375 17.0625 C-1.14141699 14.68431353 -0.12790396 13.72030124 0.59375 9.65625 C0.5653954 6.39547047 0.39414639 3.23589319 0 0 Z " fill="#302F42" transform="translate(214,301)"/>
<path d="M0 0 C1.64547318 0.00666183 1.64547318 0.00666183 3.32418823 0.01345825 C4.56532379 0.01360931 5.80645935 0.01376038 7.08520508 0.01391602 C8.4446529 0.02413003 9.8040991 0.03456204 11.1635437 0.04519653 C12.55073849 0.04892619 13.93793591 0.05177339 15.32513428 0.05377197 C18.97813171 0.0614122 22.63097037 0.08106388 26.28390503 0.10317993 C30.01068982 0.12363007 33.73750024 0.1327719 37.46432495 0.14285278 C44.77819945 0.16430953 52.09194309 0.19845001 59.4057312 0.24050903 C54.67749054 3.91802955 51.16483442 6.63937548 45.00460815 6.53689575 C43.95034134 6.52633148 42.89607452 6.51576721 41.80986023 6.50488281 C40.68263046 6.47693634 39.5554007 6.44898987 38.39401245 6.42019653 C37.22944016 6.40087067 36.06486786 6.3815448 34.86500549 6.3616333 C32.40797163 6.31679913 29.9510689 6.26419803 27.49435425 6.20437622 C23.72203635 6.11559858 19.950186 6.05920871 16.17721558 6.00613403 C13.79110843 5.95859464 11.40503775 5.90918016 9.01901245 5.85769653 C7.88570999 5.84189545 6.75240753 5.82609436 5.58476257 5.80981445 C4.53995224 5.78033722 3.49514191 5.75085999 2.41867065 5.7204895 C1.49665359 5.70033783 0.57463654 5.68018616 -0.37532043 5.65942383 C-1.47369987 5.452061 -1.47369987 5.452061 -2.5942688 5.24050903 C-3.2542688 4.25050903 -3.9142688 3.26050903 -4.5942688 2.24050903 C-2.5942688 0.24050903 -2.5942688 0.24050903 0 0 Z " fill="#E7E7E7" transform="translate(65.59426879882813,29.759490966796875)"/>
<path d="M0 0 C2.97 0 5.94 0 9 0 C9 2.31 9 4.62 9 7 C9.66 7 10.32 7 11 7 C11.495 13.93 11.495 13.93 12 21 C4.74 21 -2.52 21 -10 21 C-9 16 -9 16 -7.44140625 14.41796875 C-6.82136719 14.01191406 -6.20132813 13.60585938 -5.5625 13.1875 C-4.94503906 12.76855469 -4.32757813 12.34960938 -3.69140625 11.91796875 C-2 11 -2 11 0 11 C0 7.37 0 3.74 0 0 Z " fill="#302F42" transform="translate(166,304)"/>
<path d="M0 0 C0.99 0 1.98 0 3 0 C3 0.66 3 1.32 3 2 C3.52078125 2.21398437 4.0415625 2.42796875 4.578125 2.6484375 C7.99999089 4.55805943 10.79568602 7.06675888 13.75 9.625 C14.35199219 10.140625 14.95398438 10.65625 15.57421875 11.1875 C17.05260866 12.45469135 18.52673171 13.72685775 20 15 C19.64453125 17.39453125 19.64453125 17.39453125 19 20 C16.6875 21.6875 16.6875 21.6875 14 23 C12.66618636 23.66570519 11.33276451 24.33219689 10 25 C8.84775972 24.07038578 7.70340824 23.1309875 6.5625 22.1875 C5.92441406 21.66542969 5.28632812 21.14335938 4.62890625 20.60546875 C3 19 3 19 2 16 C2.4375 13.3125 2.4375 13.3125 3 11 C2.071875 10.566875 2.071875 10.566875 1.125 10.125 C-1 9 -1 9 -3 7 C-2.61121812 3.98694043 -1.73543126 2.60314689 0 0 Z " fill="#F8F8F8" transform="translate(118,74)"/>
<path d="M0 0 C1.051875 0.598125 2.10375 1.19625 3.1875 1.8125 C3.826875 2.1734375 4.46625 2.534375 5.125 2.90625 C6.68253746 3.81481352 8.19254464 4.80427429 9.6875 5.8125 C12.4298091 7.22071278 13.16547513 6.87721085 16 6 C16.84443568 7.24252679 17.6751458 8.4943886 18.5 9.75 C18.9640625 10.44609375 19.428125 11.1421875 19.90625 11.859375 C21 14 21 14 21 18 C6.32758621 20.55172414 6.32758621 20.55172414 1 17 C-0.01953125 14.1015625 -0.01953125 14.1015625 -0.8125 10.625 C-1.22435547 8.91183594 -1.22435547 8.91183594 -1.64453125 7.1640625 C-2.01243977 3.88927238 -1.81387225 2.67793503 0 0 Z " fill="#F1F0F0" transform="translate(242,307)"/>
<path d="M0 0 C7.31982618 1.37832193 14.45243241 3.12357593 21.625 5.125 C22.62917969 5.40214844 23.63335937 5.67929688 24.66796875 5.96484375 C27.11286455 6.64010069 29.55683066 7.31852821 32 8 C32 10.64 32 13.28 32 16 C21.19862434 14.30517056 10.61477394 11.58223841 0 9 C0 6.03 0 3.06 0 0 Z " fill="#E6A5A7" transform="translate(185,147)"/>
<path d="M0 0 C16.83 0 33.66 0 51 0 C51.495 1.98 51.495 1.98 52 4 C48.73127912 4.72632472 45.69557286 5.12889448 42.34912109 5.14526367 C41.45824799 5.15164352 40.56737488 5.15802338 39.64950562 5.16459656 C38.70040314 5.16570938 37.75130066 5.1668222 36.7734375 5.16796875 C35.78880524 5.17129715 34.80417297 5.17462555 33.78970337 5.17805481 C31.71364813 5.18310681 29.63758481 5.18546367 27.56152344 5.18530273 C24.3794228 5.18749695 21.1976647 5.20569206 18.015625 5.22460938 C15.99739702 5.22754206 13.97916739 5.22952769 11.9609375 5.23046875 C11.00778656 5.23765427 10.05463562 5.24483978 9.07260132 5.25224304 C8.18803253 5.24916641 7.30346375 5.24608978 6.39208984 5.24291992 C5.22557388 5.24505745 5.22557388 5.24505745 4.03549194 5.24723816 C2 5 2 5 -1 3 C-0.67 2.01 -0.34 1.02 0 0 Z " fill="#E5E5E5" transform="translate(62,79)"/>
<path d="M0 0 C1.32 0 2.64 0 4 0 C3.13736938 5.48305476 0.67502029 9.16630135 -2.3125 13.75 C-2.79912109 14.52988281 -3.28574219 15.30976562 -3.78710938 16.11328125 C-4.26599609 16.85449219 -4.74488281 17.59570312 -5.23828125 18.359375 C-5.67180908 19.03452148 -6.10533691 19.70966797 -6.55200195 20.40527344 C-8.28387408 22.3126396 -9.48992176 22.62575186 -12 23 C-13.20276695 21.59627198 -14.38680519 20.17647903 -15.5625 18.75 C-16.55443359 17.56664062 -16.55443359 17.56664062 -17.56640625 16.359375 C-19 14 -19 14 -18.71484375 11.703125 C-18.47894531 11.14109375 -18.24304688 10.5790625 -18 10 C-15.13873816 10.39465681 -14.20860296 10.73912183 -12.36328125 13.046875 C-11.91339844 13.69140625 -11.46351563 14.3359375 -11 15 C-6.12733688 8.91563727 -6.12733688 8.91563727 -1.8125 2.4375 C-1.214375 1.633125 -0.61625 0.82875 0 0 Z " fill="#F7F7F7" transform="translate(144,47)"/>
<path d="M0 0 C0.33 0.66 0.66 1.32 1 2 C9.91 2 18.82 2 28 2 C27.34 3.65 26.68 5.3 26 7 C18.74 7 11.48 7 4 7 C6.475 10.465 6.475 10.465 9 14 C8 17 8 17 5.9375 18.1875 C5.298125 18.455625 4.65875 18.72375 4 19 C-0.93694529 14.30388131 -0.93694529 14.30388131 -1.109375 10.73828125 C-0.916383 9.20196336 -0.68020458 7.6702487 -0.39453125 6.1484375 C0.12041081 3.70835795 0.12041081 3.70835795 0 0 Z " fill="#E2E2E3" transform="translate(163,53)"/>
<path d="M0 0 C0.76166977 0.00222061 1.52333954 0.00444122 2.30809021 0.00672913 C3.16890701 0.00680466 4.02972382 0.00688019 4.91662598 0.00695801 C5.8520372 0.01211929 6.78744843 0.01728058 7.75120544 0.02259827 C8.70422043 0.02401321 9.65723541 0.02542816 10.63912964 0.02688599 C13.69605085 0.032503 16.75289996 0.04505836 19.80979919 0.05775452 C21.87685543 0.06276733 23.94391281 0.06733061 26.01097107 0.07142639 C31.08977507 0.08247795 36.16852489 0.09975397 41.24729919 0.12025452 C41.24729919 1.44025452 41.24729919 2.76025452 41.24729919 4.12025452 C27.05729919 4.12025452 12.86729919 4.12025452 -1.75270081 4.12025452 C-2.08270081 3.13025452 -2.41270081 2.14025452 -2.75270081 1.12025452 C-1.75270081 0.12025452 -1.75270081 0.12025452 0 0 Z " fill="#E6E6E6" transform="translate(63.75270080566406,54.87974548339844)"/>
<path d="M0 0 C4.29154022 -0.0867562 8.58285668 -0.1403089 12.875 -0.1875 C14.70998047 -0.22520508 14.70998047 -0.22520508 16.58203125 -0.26367188 C18.33193359 -0.27817383 18.33193359 -0.27817383 20.1171875 -0.29296875 C21.73536377 -0.31653442 21.73536377 -0.31653442 23.38623047 -0.34057617 C24.68004639 -0.17199097 24.68004639 -0.17199097 26 0 C26.66 0.99 27.32 1.98 28 3 C25.04544307 5.95455693 21.72582118 5.62108201 17.75 5.875 C16.99847656 5.9471875 16.24695313 6.019375 15.47265625 6.09375 C10.05974715 6.45272128 7.34705509 5.51108295 3 2 C2.01 1.34 1.02 0.68 0 0 Z " fill="#E5E5E6" transform="translate(143,30)"/>
<path d="M0 0 C5.75 -0.125 5.75 -0.125 8 1 C9 4 9 4 10 7 C10.66 7.33 11.32 7.66 12 8 C11.34 9.32 10.68 10.64 10 12 C4.89950751 12 3.6080609 10.44770264 0 7 C-1.04449911 3.86650268 -0.93423645 3.01031744 0 0 Z " fill="#E5A5A7" transform="translate(121,86)"/>
<path d="M0 0 C2.97 0.495 2.97 0.495 6 1 C6.19294408 5.82360189 5.75747614 9.49646738 4 14 C0.86501824 12.91897181 0.0131441 12.02159388 -1.75 9.125 C-3 6 -3 6 -3 2 C-2.01 2 -1.02 2 0 2 C0 1.34 0 0.68 0 0 Z " fill="#E6A6A8" transform="translate(194,65)"/>
<path d="M0 0 C3 1 3 1 4.125 2.625 C5.26170333 5.71033761 5.62420256 8.74308885 6 12 C2.04 12 -1.92 12 -6 12 C-4 8 -2 4 0 0 Z " fill="#F8F8F8" transform="translate(162,67)"/>
<path d="M0 0 C2.97 0 5.94 0 9 0 C9 3.3 9 6.6 9 10 C6.66705225 10.04241723 4.33297433 10.04092937 2 10 C-0.16090886 7.83909114 0.27599869 2.7994153 0 0 Z " fill="#E9A9AB" transform="translate(214,301)"/>
<path d="M0 0 C0.99 0 1.98 0 3 0 C3 0.66 3 1.32 3 2 C4.32 2.66 5.64 3.32 7 4 C7 6.31 7 8.62 7 11 C3.3586795 11.33102914 1.58527075 11.42019439 -1.4375 9.25 C-3 7 -3 7 -2.875 4.9375 C-2 3 -2 3 0 0 Z " fill="#D6D7DD" transform="translate(118,74)"/>
<path d="M0 0 C6.24675325 6.07792208 6.24675325 6.07792208 8 9 C7 12 7 12 4.9375 13.1875 C4.298125 13.455625 3.65875 13.72375 3 14 C-0.69948187 10.47668394 -0.69948187 10.47668394 -2 8 C-1.84426575 5.00345823 -1.03746249 2.8653726 0 0 Z " fill="#E4A5A7" transform="translate(164,58)"/>
<path d="M0 0 C-0.54723683 3.37462715 -1.0549 5.08235 -3 8 C-3.66 8 -4.32 8 -5 8 C-5 7.34 -5 6.68 -5 6 C-5.598125 5.7525 -6.19625 5.505 -6.8125 5.25 C-9.29482087 3.83153093 -10.36328035 2.30735262 -12 0 C-10.37585622 -0.19477739 -8.75063577 -0.38059458 -7.125 -0.5625 C-6.22007812 -0.66691406 -5.31515625 -0.77132812 -4.3828125 -0.87890625 C-2 -1 -2 -1 0 0 Z " fill="#DEDEE0" transform="translate(197,79)"/>
<path d="M0 0 C2.97 0 5.94 0 9 0 C9 2.31 9 4.62 9 7 C3.25 7.125 3.25 7.125 1 6 C0.375 2.9375 0.375 2.9375 0 0 Z " fill="#E8B0B1" transform="translate(166,304)"/>
<path d="M0 0 C0.66 0 1.32 0 2 0 C3.0064275 1.66279327 4.00585407 3.32983484 5 5 C5.99 5.66 6.98 6.32 8 7 C7.67 7.99 7.34 8.98 7 10 C5.82174642 9.09827532 4.65768423 8.17798498 3.5 7.25 C2.8503125 6.73953125 2.200625 6.2290625 1.53125 5.703125 C0 4 0 4 0 0 Z " fill="#58566C" transform="translate(113,78)"/>
<path d="M0 0 C0.66 0 1.32 0 2 0 C2.6875 2.8125 2.6875 2.8125 3 6 C1.5625 7.875 1.5625 7.875 0 9 C-0.66 8.34 -1.32 7.68 -2 7 C-1.34 6.67 -0.68 6.34 0 6 C0 4.02 0 2.04 0 0 Z " fill="#858493" transform="translate(137,87)"/>
</svg>
