<?xml version="1.0" standalone="no"?>
<!DOCTYPE svg PUBLIC "-//W3C//DTD SVG 20010904//EN"
 "http://www.w3.org/TR/2001/REC-SVG-20010904/DTD/svg10.dtd">
<svg version="1.0" xmlns="http://www.w3.org/2000/svg"
 width="481.000000pt" height="379.000000pt" viewBox="0 0 481.000000 379.000000"
 preserveAspectRatio="xMidYMid meet">
<metadata>
Created by potrace 1.16, written by Peter Selinger 2001-2019
</metadata>
<g transform="translate(0.000000,379.000000) scale(0.100000,-0.100000)"
fill="#000000" stroke="none">
<path d="M405 2858 c-43 -15 -75 -47 -97 -97 -39 -85 -2 -177 88 -221 48 -24
51 -27 62 -81 7 -31 25 -76 42 -100 50 -76 159 -139 239 -139 45 0 62 -17 80
-77 15 -54 29 -55 37 -1 7 38 8 40 22 22 13 -18 14 -17 8 11 -22 112 -29 224
-17 268 22 76 78 111 159 100 45 -6 52 1 45 41 -9 43 -71 102 -123 116 -25 7
-51 17 -59 23 -13 11 -73 22 -191 33 -59 6 -67 10 -85 38 -39 61 -135 90 -210
64z"/>
<path d="M3597 2130 c-15 -5 -59 -25 -97 -44 -38 -20 -82 -36 -98 -36 -16 0
-35 -7 -42 -15 -7 -8 -19 -15 -26 -15 -21 0 -64 -76 -64 -113 0 -49 34 -77 92
-77 62 0 95 -14 140 -57 36 -35 38 -36 62 -20 14 10 33 17 43 17 22 -1 66 -37
82 -67 18 -34 14 -149 -6 -180 -16 -25 -16 -25 2 -20 11 3 46 13 78 22 67 18
125 65 165 134 24 41 27 56 27 141 -1 84 -4 101 -28 147 -38 73 -82 120 -120
128 -18 4 -50 17 -72 30 -48 27 -100 36 -138 25z"/>
<path d="M1288 2089 c-16 -9 -18 -30 -18 -214 l0 -205 30 -27 c17 -14 30 -32
30 -38 0 -18 39 -48 110 -85 36 -18 81 -43 100 -55 19 -12 60 -34 90 -48 30
-15 71 -36 90 -48 32 -20 36 -20 61 -5 83 49 168 -28 124 -111 -29 -52 -51
-54 -195 -13 -104 30 -233 65 -275 74 -52 12 -137 41 -141 47 -18 30 -24 -2
-22 -108 l3 -118 260 -5 260 -5 5 -40 c3 -22 4 -82 2 -132 l-3 -93 -109 0
c-98 0 -110 -2 -120 -19 -5 -11 -10 -29 -10 -40 0 -21 2 -21 394 -21 217 0
397 4 400 8 3 5 2 22 -3 38 l-7 29 -100 5 -99 5 0 130 0 130 249 3 c164 1 254
6 263 13 10 9 13 100 13 470 0 403 -2 459 -16 473 -14 14 -89 16 -682 16 -434
-1 -673 -4 -684 -11z m567 -465 c9 -4 21 -18 26 -32 11 -29 -3 -52 -33 -52
-26 0 -14 -17 17 -22 37 -7 52 15 37 56 -16 43 -15 46 8 46 12 0 20 -7 20 -17
0 -14 3 -13 21 6 17 18 24 20 35 10 10 -8 18 -9 25 -2 16 16 69 -7 69 -29 0
-10 -7 -18 -15 -18 -20 0 -19 -39 1 -61 16 -17 12 -39 -6 -39 -19 0 -50 45
-50 71 0 18 -6 28 -20 32 -27 7 -33 -7 -25 -59 5 -36 3 -44 -9 -44 -9 0 -16 4
-16 10 0 6 -21 7 -53 4 -46 -5 -55 -3 -80 20 -34 31 -36 77 -5 106 24 22 28
23 53 14z"/>
<path d="M3681 1155 c-142 -40 -246 -156 -272 -303 -5 -31 -19 -73 -29 -93
-31 -58 -35 -115 -11 -189 11 -35 18 -66 16 -69 -3 -2 -45 12 -95 32 -49 20
-103 37 -119 37 -36 0 -56 -29 -46 -67 6 -25 28 -37 200 -110 63 -26 70 -33
78 -65 5 -20 21 -48 37 -63 l29 -28 249 -5 c137 -2 293 -1 347 3 90 7 101 10
124 34 17 18 31 50 39 92 7 35 18 84 23 109 16 74 13 209 -6 260 -9 25 -20 68
-25 97 -4 29 -14 69 -21 90 -29 90 -123 188 -215 223 -76 30 -224 37 -303 15z"/>
<path d="M504 816 c-8 -13 -26 -56 -40 -97 -36 -104 -37 -214 -2 -284 14 -28
35 -82 47 -121 12 -41 28 -74 37 -78 8 -3 146 -6 306 -6 l291 0 -8 82 c-4 45
-13 115 -20 156 -9 52 -10 85 -2 113 7 28 6 52 -3 84 -12 44 -14 45 -44 40
-64 -12 -267 33 -464 103 l-83 30 -15 -22z"/>
</g>
</svg>
